<mxfile host="app.diagrams.net" modified="2023-09-13T05:42:15.439Z" agent="Mozilla/5.0 (Windows NT 10.0; Win64; x64) AppleWebKit/537.36 (KHTML, like Gecko) Chrome/116.0.0.0 Safari/537.36" etag="vuck6Cv0GMIZmHNpJukh" version="21.7.4" type="device">
  <diagram id="C5RBs43oDa-KdzZeNtuy" name="Page-1">
    <mxGraphModel dx="3267" dy="1353" grid="1" gridSize="10" guides="1" tooltips="1" connect="1" arrows="1" fold="1" page="1" pageScale="1" pageWidth="827" pageHeight="1169" math="0" shadow="0">
      <root>
        <mxCell id="WIyWlLk6GJQsqaUBKTNV-0" />
        <mxCell id="WIyWlLk6GJQsqaUBKTNV-1" parent="WIyWlLk6GJQsqaUBKTNV-0" />
        <mxCell id="zkfFHV4jXpPFQw0GAbJ--0" value="IPetCreator" style="swimlane;fontStyle=2;align=center;verticalAlign=top;childLayout=stackLayout;horizontal=1;startSize=26;horizontalStack=0;resizeParent=1;resizeLast=0;collapsible=1;marginBottom=0;rounded=0;shadow=0;strokeWidth=1;" parent="WIyWlLk6GJQsqaUBKTNV-1" vertex="1">
          <mxGeometry x="600" y="147" width="160" height="160" as="geometry">
            <mxRectangle x="230" y="140" width="160" height="26" as="alternateBounds" />
          </mxGeometry>
        </mxCell>
        <mxCell id="zkfFHV4jXpPFQw0GAbJ--4" value="" style="line;html=1;strokeWidth=1;align=left;verticalAlign=middle;spacingTop=-1;spacingLeft=3;spacingRight=3;rotatable=0;labelPosition=right;points=[];portConstraint=eastwest;" parent="zkfFHV4jXpPFQw0GAbJ--0" vertex="1">
          <mxGeometry y="26" width="160" height="44" as="geometry" />
        </mxCell>
        <mxCell id="lFWVvtdegQfaIloCyifd-2" value="+ create_little_pet()" style="text;strokeColor=none;fillColor=none;align=left;verticalAlign=middle;spacingLeft=4;spacingRight=4;overflow=hidden;points=[[0,0.5],[1,0.5]];portConstraint=eastwest;rotatable=0;whiteSpace=wrap;html=1;" vertex="1" parent="zkfFHV4jXpPFQw0GAbJ--0">
          <mxGeometry y="70" width="160" height="30" as="geometry" />
        </mxCell>
        <mxCell id="lFWVvtdegQfaIloCyifd-3" value="+ create_medium_pet()" style="text;strokeColor=none;fillColor=none;align=left;verticalAlign=middle;spacingLeft=4;spacingRight=4;overflow=hidden;points=[[0,0.5],[1,0.5]];portConstraint=eastwest;rotatable=0;whiteSpace=wrap;html=1;" vertex="1" parent="zkfFHV4jXpPFQw0GAbJ--0">
          <mxGeometry y="100" width="160" height="30" as="geometry" />
        </mxCell>
        <mxCell id="lFWVvtdegQfaIloCyifd-4" value="+ create_big_pet()" style="text;strokeColor=none;fillColor=none;align=left;verticalAlign=middle;spacingLeft=4;spacingRight=4;overflow=hidden;points=[[0,0.5],[1,0.5]];portConstraint=eastwest;rotatable=0;whiteSpace=wrap;html=1;" vertex="1" parent="zkfFHV4jXpPFQw0GAbJ--0">
          <mxGeometry y="130" width="160" height="30" as="geometry" />
        </mxCell>
        <mxCell id="lFWVvtdegQfaIloCyifd-9" value="WaterPetCreator" style="swimlane;fontStyle=2;align=center;verticalAlign=top;childLayout=stackLayout;horizontal=1;startSize=26;horizontalStack=0;resizeParent=1;resizeLast=0;collapsible=1;marginBottom=0;rounded=0;shadow=0;strokeWidth=1;" vertex="1" parent="WIyWlLk6GJQsqaUBKTNV-1">
          <mxGeometry x="360" y="387" width="160" height="160" as="geometry">
            <mxRectangle x="230" y="140" width="160" height="26" as="alternateBounds" />
          </mxGeometry>
        </mxCell>
        <mxCell id="lFWVvtdegQfaIloCyifd-10" value="" style="line;html=1;strokeWidth=1;align=left;verticalAlign=middle;spacingTop=-1;spacingLeft=3;spacingRight=3;rotatable=0;labelPosition=right;points=[];portConstraint=eastwest;" vertex="1" parent="lFWVvtdegQfaIloCyifd-9">
          <mxGeometry y="26" width="160" height="44" as="geometry" />
        </mxCell>
        <mxCell id="lFWVvtdegQfaIloCyifd-11" value="+ create_little_pet()" style="text;strokeColor=none;fillColor=none;align=left;verticalAlign=middle;spacingLeft=4;spacingRight=4;overflow=hidden;points=[[0,0.5],[1,0.5]];portConstraint=eastwest;rotatable=0;whiteSpace=wrap;html=1;" vertex="1" parent="lFWVvtdegQfaIloCyifd-9">
          <mxGeometry y="70" width="160" height="30" as="geometry" />
        </mxCell>
        <mxCell id="lFWVvtdegQfaIloCyifd-12" value="+ create_medium_pet()" style="text;strokeColor=none;fillColor=none;align=left;verticalAlign=middle;spacingLeft=4;spacingRight=4;overflow=hidden;points=[[0,0.5],[1,0.5]];portConstraint=eastwest;rotatable=0;whiteSpace=wrap;html=1;" vertex="1" parent="lFWVvtdegQfaIloCyifd-9">
          <mxGeometry y="100" width="160" height="30" as="geometry" />
        </mxCell>
        <mxCell id="lFWVvtdegQfaIloCyifd-13" value="+ create_big_pet()" style="text;strokeColor=none;fillColor=none;align=left;verticalAlign=middle;spacingLeft=4;spacingRight=4;overflow=hidden;points=[[0,0.5],[1,0.5]];portConstraint=eastwest;rotatable=0;whiteSpace=wrap;html=1;" vertex="1" parent="lFWVvtdegQfaIloCyifd-9">
          <mxGeometry y="130" width="160" height="30" as="geometry" />
        </mxCell>
        <mxCell id="lFWVvtdegQfaIloCyifd-14" value="EarthPetCreator" style="swimlane;fontStyle=2;align=center;verticalAlign=top;childLayout=stackLayout;horizontal=1;startSize=26;horizontalStack=0;resizeParent=1;resizeLast=0;collapsible=1;marginBottom=0;rounded=0;shadow=0;strokeWidth=1;" vertex="1" parent="WIyWlLk6GJQsqaUBKTNV-1">
          <mxGeometry x="600" y="387" width="160" height="160" as="geometry">
            <mxRectangle x="230" y="140" width="160" height="26" as="alternateBounds" />
          </mxGeometry>
        </mxCell>
        <mxCell id="lFWVvtdegQfaIloCyifd-15" value="" style="line;html=1;strokeWidth=1;align=left;verticalAlign=middle;spacingTop=-1;spacingLeft=3;spacingRight=3;rotatable=0;labelPosition=right;points=[];portConstraint=eastwest;" vertex="1" parent="lFWVvtdegQfaIloCyifd-14">
          <mxGeometry y="26" width="160" height="44" as="geometry" />
        </mxCell>
        <mxCell id="lFWVvtdegQfaIloCyifd-16" value="+ create_little_pet()" style="text;strokeColor=none;fillColor=none;align=left;verticalAlign=middle;spacingLeft=4;spacingRight=4;overflow=hidden;points=[[0,0.5],[1,0.5]];portConstraint=eastwest;rotatable=0;whiteSpace=wrap;html=1;" vertex="1" parent="lFWVvtdegQfaIloCyifd-14">
          <mxGeometry y="70" width="160" height="30" as="geometry" />
        </mxCell>
        <mxCell id="lFWVvtdegQfaIloCyifd-17" value="+ create_medium_pet()" style="text;strokeColor=none;fillColor=none;align=left;verticalAlign=middle;spacingLeft=4;spacingRight=4;overflow=hidden;points=[[0,0.5],[1,0.5]];portConstraint=eastwest;rotatable=0;whiteSpace=wrap;html=1;" vertex="1" parent="lFWVvtdegQfaIloCyifd-14">
          <mxGeometry y="100" width="160" height="30" as="geometry" />
        </mxCell>
        <mxCell id="lFWVvtdegQfaIloCyifd-18" value="+ create_big_pet()" style="text;strokeColor=none;fillColor=none;align=left;verticalAlign=middle;spacingLeft=4;spacingRight=4;overflow=hidden;points=[[0,0.5],[1,0.5]];portConstraint=eastwest;rotatable=0;whiteSpace=wrap;html=1;" vertex="1" parent="lFWVvtdegQfaIloCyifd-14">
          <mxGeometry y="130" width="160" height="30" as="geometry" />
        </mxCell>
        <mxCell id="lFWVvtdegQfaIloCyifd-19" value="WindPetCreator" style="swimlane;fontStyle=2;align=center;verticalAlign=top;childLayout=stackLayout;horizontal=1;startSize=26;horizontalStack=0;resizeParent=1;resizeLast=0;collapsible=1;marginBottom=0;rounded=0;shadow=0;strokeWidth=1;" vertex="1" parent="WIyWlLk6GJQsqaUBKTNV-1">
          <mxGeometry x="840" y="387" width="160" height="160" as="geometry">
            <mxRectangle x="230" y="140" width="160" height="26" as="alternateBounds" />
          </mxGeometry>
        </mxCell>
        <mxCell id="lFWVvtdegQfaIloCyifd-20" value="" style="line;html=1;strokeWidth=1;align=left;verticalAlign=middle;spacingTop=-1;spacingLeft=3;spacingRight=3;rotatable=0;labelPosition=right;points=[];portConstraint=eastwest;" vertex="1" parent="lFWVvtdegQfaIloCyifd-19">
          <mxGeometry y="26" width="160" height="44" as="geometry" />
        </mxCell>
        <mxCell id="lFWVvtdegQfaIloCyifd-21" value="+ create_little_pet()" style="text;strokeColor=none;fillColor=none;align=left;verticalAlign=middle;spacingLeft=4;spacingRight=4;overflow=hidden;points=[[0,0.5],[1,0.5]];portConstraint=eastwest;rotatable=0;whiteSpace=wrap;html=1;" vertex="1" parent="lFWVvtdegQfaIloCyifd-19">
          <mxGeometry y="70" width="160" height="30" as="geometry" />
        </mxCell>
        <mxCell id="lFWVvtdegQfaIloCyifd-22" value="+ create_medium_pet()" style="text;strokeColor=none;fillColor=none;align=left;verticalAlign=middle;spacingLeft=4;spacingRight=4;overflow=hidden;points=[[0,0.5],[1,0.5]];portConstraint=eastwest;rotatable=0;whiteSpace=wrap;html=1;" vertex="1" parent="lFWVvtdegQfaIloCyifd-19">
          <mxGeometry y="100" width="160" height="30" as="geometry" />
        </mxCell>
        <mxCell id="lFWVvtdegQfaIloCyifd-23" value="+ create_big_pet()" style="text;strokeColor=none;fillColor=none;align=left;verticalAlign=middle;spacingLeft=4;spacingRight=4;overflow=hidden;points=[[0,0.5],[1,0.5]];portConstraint=eastwest;rotatable=0;whiteSpace=wrap;html=1;" vertex="1" parent="lFWVvtdegQfaIloCyifd-19">
          <mxGeometry y="130" width="160" height="30" as="geometry" />
        </mxCell>
        <mxCell id="lFWVvtdegQfaIloCyifd-24" value="" style="endArrow=classic;html=1;rounded=0;exitX=0.5;exitY=0;exitDx=0;exitDy=0;" edge="1" parent="WIyWlLk6GJQsqaUBKTNV-1" source="lFWVvtdegQfaIloCyifd-9" target="zkfFHV4jXpPFQw0GAbJ--0">
          <mxGeometry width="50" height="50" relative="1" as="geometry">
            <mxPoint x="630" y="437" as="sourcePoint" />
            <mxPoint x="680" y="387" as="targetPoint" />
            <Array as="points">
              <mxPoint x="680" y="347" />
            </Array>
          </mxGeometry>
        </mxCell>
        <mxCell id="lFWVvtdegQfaIloCyifd-25" value="" style="endArrow=classic;html=1;rounded=0;entryX=0.501;entryY=1.024;entryDx=0;entryDy=0;entryPerimeter=0;exitX=0.5;exitY=0;exitDx=0;exitDy=0;" edge="1" parent="WIyWlLk6GJQsqaUBKTNV-1" source="lFWVvtdegQfaIloCyifd-14" target="lFWVvtdegQfaIloCyifd-4">
          <mxGeometry width="50" height="50" relative="1" as="geometry">
            <mxPoint x="630" y="437" as="sourcePoint" />
            <mxPoint x="680" y="387" as="targetPoint" />
          </mxGeometry>
        </mxCell>
        <mxCell id="lFWVvtdegQfaIloCyifd-26" value="" style="endArrow=classic;html=1;rounded=0;exitX=0.5;exitY=0;exitDx=0;exitDy=0;" edge="1" parent="WIyWlLk6GJQsqaUBKTNV-1" source="lFWVvtdegQfaIloCyifd-19" target="zkfFHV4jXpPFQw0GAbJ--0">
          <mxGeometry width="50" height="50" relative="1" as="geometry">
            <mxPoint x="630" y="437" as="sourcePoint" />
            <mxPoint x="680" y="387" as="targetPoint" />
            <Array as="points">
              <mxPoint x="680" y="347" />
            </Array>
          </mxGeometry>
        </mxCell>
        <mxCell id="lFWVvtdegQfaIloCyifd-27" value="ILittlePet" style="swimlane;fontStyle=1;align=center;verticalAlign=top;childLayout=stackLayout;horizontal=1;startSize=26;horizontalStack=0;resizeParent=1;resizeParentMax=0;resizeLast=0;collapsible=1;marginBottom=0;whiteSpace=wrap;html=1;" vertex="1" parent="WIyWlLk6GJQsqaUBKTNV-1">
          <mxGeometry x="-120" y="707" width="160" height="60" as="geometry" />
        </mxCell>
        <mxCell id="lFWVvtdegQfaIloCyifd-29" value="" style="line;strokeWidth=1;fillColor=none;align=left;verticalAlign=middle;spacingTop=-1;spacingLeft=3;spacingRight=3;rotatable=0;labelPosition=right;points=[];portConstraint=eastwest;strokeColor=inherit;" vertex="1" parent="lFWVvtdegQfaIloCyifd-27">
          <mxGeometry y="26" width="160" height="8" as="geometry" />
        </mxCell>
        <mxCell id="lFWVvtdegQfaIloCyifd-30" value="+ find_food()" style="text;strokeColor=none;fillColor=none;align=left;verticalAlign=top;spacingLeft=4;spacingRight=4;overflow=hidden;rotatable=0;points=[[0,0.5],[1,0.5]];portConstraint=eastwest;whiteSpace=wrap;html=1;" vertex="1" parent="lFWVvtdegQfaIloCyifd-27">
          <mxGeometry y="34" width="160" height="26" as="geometry" />
        </mxCell>
        <mxCell id="lFWVvtdegQfaIloCyifd-31" value="IMediumPet" style="swimlane;fontStyle=1;align=center;verticalAlign=top;childLayout=stackLayout;horizontal=1;startSize=26;horizontalStack=0;resizeParent=1;resizeParentMax=0;resizeLast=0;collapsible=1;marginBottom=0;whiteSpace=wrap;html=1;" vertex="1" parent="WIyWlLk6GJQsqaUBKTNV-1">
          <mxGeometry x="600" y="707" width="160" height="60" as="geometry" />
        </mxCell>
        <mxCell id="lFWVvtdegQfaIloCyifd-32" value="" style="line;strokeWidth=1;fillColor=none;align=left;verticalAlign=middle;spacingTop=-1;spacingLeft=3;spacingRight=3;rotatable=0;labelPosition=right;points=[];portConstraint=eastwest;strokeColor=inherit;" vertex="1" parent="lFWVvtdegQfaIloCyifd-31">
          <mxGeometry y="26" width="160" height="8" as="geometry" />
        </mxCell>
        <mxCell id="lFWVvtdegQfaIloCyifd-33" value="+ heal()" style="text;strokeColor=none;fillColor=none;align=left;verticalAlign=top;spacingLeft=4;spacingRight=4;overflow=hidden;rotatable=0;points=[[0,0.5],[1,0.5]];portConstraint=eastwest;whiteSpace=wrap;html=1;" vertex="1" parent="lFWVvtdegQfaIloCyifd-31">
          <mxGeometry y="34" width="160" height="26" as="geometry" />
        </mxCell>
        <mxCell id="lFWVvtdegQfaIloCyifd-34" value="IBigPet" style="swimlane;fontStyle=1;align=center;verticalAlign=top;childLayout=stackLayout;horizontal=1;startSize=26;horizontalStack=0;resizeParent=1;resizeParentMax=0;resizeLast=0;collapsible=1;marginBottom=0;whiteSpace=wrap;html=1;" vertex="1" parent="WIyWlLk6GJQsqaUBKTNV-1">
          <mxGeometry x="1360" y="707" width="160" height="60" as="geometry" />
        </mxCell>
        <mxCell id="lFWVvtdegQfaIloCyifd-35" value="" style="line;strokeWidth=1;fillColor=none;align=left;verticalAlign=middle;spacingTop=-1;spacingLeft=3;spacingRight=3;rotatable=0;labelPosition=right;points=[];portConstraint=eastwest;strokeColor=inherit;" vertex="1" parent="lFWVvtdegQfaIloCyifd-34">
          <mxGeometry y="26" width="160" height="8" as="geometry" />
        </mxCell>
        <mxCell id="lFWVvtdegQfaIloCyifd-36" value="+ attack()" style="text;strokeColor=none;fillColor=none;align=left;verticalAlign=top;spacingLeft=4;spacingRight=4;overflow=hidden;rotatable=0;points=[[0,0.5],[1,0.5]];portConstraint=eastwest;whiteSpace=wrap;html=1;" vertex="1" parent="lFWVvtdegQfaIloCyifd-34">
          <mxGeometry y="34" width="160" height="26" as="geometry" />
        </mxCell>
        <mxCell id="lFWVvtdegQfaIloCyifd-37" value="LittleWaterPet" style="swimlane;fontStyle=1;align=center;verticalAlign=top;childLayout=stackLayout;horizontal=1;startSize=26;horizontalStack=0;resizeParent=1;resizeParentMax=0;resizeLast=0;collapsible=1;marginBottom=0;whiteSpace=wrap;html=1;" vertex="1" parent="WIyWlLk6GJQsqaUBKTNV-1">
          <mxGeometry x="-320" y="827" width="160" height="60" as="geometry" />
        </mxCell>
        <mxCell id="lFWVvtdegQfaIloCyifd-38" value="" style="line;strokeWidth=1;fillColor=none;align=left;verticalAlign=middle;spacingTop=-1;spacingLeft=3;spacingRight=3;rotatable=0;labelPosition=right;points=[];portConstraint=eastwest;strokeColor=inherit;" vertex="1" parent="lFWVvtdegQfaIloCyifd-37">
          <mxGeometry y="26" width="160" height="8" as="geometry" />
        </mxCell>
        <mxCell id="lFWVvtdegQfaIloCyifd-39" value="+ find_food()" style="text;strokeColor=none;fillColor=none;align=left;verticalAlign=top;spacingLeft=4;spacingRight=4;overflow=hidden;rotatable=0;points=[[0,0.5],[1,0.5]];portConstraint=eastwest;whiteSpace=wrap;html=1;" vertex="1" parent="lFWVvtdegQfaIloCyifd-37">
          <mxGeometry y="34" width="160" height="26" as="geometry" />
        </mxCell>
        <mxCell id="lFWVvtdegQfaIloCyifd-40" value="LittleEarthPet" style="swimlane;fontStyle=1;align=center;verticalAlign=top;childLayout=stackLayout;horizontal=1;startSize=26;horizontalStack=0;resizeParent=1;resizeParentMax=0;resizeLast=0;collapsible=1;marginBottom=0;whiteSpace=wrap;html=1;" vertex="1" parent="WIyWlLk6GJQsqaUBKTNV-1">
          <mxGeometry x="-120" y="827" width="160" height="60" as="geometry" />
        </mxCell>
        <mxCell id="lFWVvtdegQfaIloCyifd-41" value="" style="line;strokeWidth=1;fillColor=none;align=left;verticalAlign=middle;spacingTop=-1;spacingLeft=3;spacingRight=3;rotatable=0;labelPosition=right;points=[];portConstraint=eastwest;strokeColor=inherit;" vertex="1" parent="lFWVvtdegQfaIloCyifd-40">
          <mxGeometry y="26" width="160" height="8" as="geometry" />
        </mxCell>
        <mxCell id="lFWVvtdegQfaIloCyifd-42" value="+ find_food()" style="text;strokeColor=none;fillColor=none;align=left;verticalAlign=top;spacingLeft=4;spacingRight=4;overflow=hidden;rotatable=0;points=[[0,0.5],[1,0.5]];portConstraint=eastwest;whiteSpace=wrap;html=1;" vertex="1" parent="lFWVvtdegQfaIloCyifd-40">
          <mxGeometry y="34" width="160" height="26" as="geometry" />
        </mxCell>
        <mxCell id="lFWVvtdegQfaIloCyifd-43" value="LittleWindPet" style="swimlane;fontStyle=1;align=center;verticalAlign=top;childLayout=stackLayout;horizontal=1;startSize=26;horizontalStack=0;resizeParent=1;resizeParentMax=0;resizeLast=0;collapsible=1;marginBottom=0;whiteSpace=wrap;html=1;" vertex="1" parent="WIyWlLk6GJQsqaUBKTNV-1">
          <mxGeometry x="80" y="827" width="160" height="60" as="geometry" />
        </mxCell>
        <mxCell id="lFWVvtdegQfaIloCyifd-44" value="" style="line;strokeWidth=1;fillColor=none;align=left;verticalAlign=middle;spacingTop=-1;spacingLeft=3;spacingRight=3;rotatable=0;labelPosition=right;points=[];portConstraint=eastwest;strokeColor=inherit;" vertex="1" parent="lFWVvtdegQfaIloCyifd-43">
          <mxGeometry y="26" width="160" height="8" as="geometry" />
        </mxCell>
        <mxCell id="lFWVvtdegQfaIloCyifd-45" value="+ find_food()" style="text;strokeColor=none;fillColor=none;align=left;verticalAlign=top;spacingLeft=4;spacingRight=4;overflow=hidden;rotatable=0;points=[[0,0.5],[1,0.5]];portConstraint=eastwest;whiteSpace=wrap;html=1;" vertex="1" parent="lFWVvtdegQfaIloCyifd-43">
          <mxGeometry y="34" width="160" height="26" as="geometry" />
        </mxCell>
        <mxCell id="lFWVvtdegQfaIloCyifd-46" value="MediumWaterPet" style="swimlane;fontStyle=1;align=center;verticalAlign=top;childLayout=stackLayout;horizontal=1;startSize=26;horizontalStack=0;resizeParent=1;resizeParentMax=0;resizeLast=0;collapsible=1;marginBottom=0;whiteSpace=wrap;html=1;" vertex="1" parent="WIyWlLk6GJQsqaUBKTNV-1">
          <mxGeometry x="400" y="827" width="160" height="60" as="geometry" />
        </mxCell>
        <mxCell id="lFWVvtdegQfaIloCyifd-47" value="" style="line;strokeWidth=1;fillColor=none;align=left;verticalAlign=middle;spacingTop=-1;spacingLeft=3;spacingRight=3;rotatable=0;labelPosition=right;points=[];portConstraint=eastwest;strokeColor=inherit;" vertex="1" parent="lFWVvtdegQfaIloCyifd-46">
          <mxGeometry y="26" width="160" height="8" as="geometry" />
        </mxCell>
        <mxCell id="lFWVvtdegQfaIloCyifd-48" value="+ heal()" style="text;strokeColor=none;fillColor=none;align=left;verticalAlign=top;spacingLeft=4;spacingRight=4;overflow=hidden;rotatable=0;points=[[0,0.5],[1,0.5]];portConstraint=eastwest;whiteSpace=wrap;html=1;" vertex="1" parent="lFWVvtdegQfaIloCyifd-46">
          <mxGeometry y="34" width="160" height="26" as="geometry" />
        </mxCell>
        <mxCell id="lFWVvtdegQfaIloCyifd-49" value="MediumEarthPet" style="swimlane;fontStyle=1;align=center;verticalAlign=top;childLayout=stackLayout;horizontal=1;startSize=26;horizontalStack=0;resizeParent=1;resizeParentMax=0;resizeLast=0;collapsible=1;marginBottom=0;whiteSpace=wrap;html=1;" vertex="1" parent="WIyWlLk6GJQsqaUBKTNV-1">
          <mxGeometry x="600" y="827" width="160" height="60" as="geometry" />
        </mxCell>
        <mxCell id="lFWVvtdegQfaIloCyifd-50" value="" style="line;strokeWidth=1;fillColor=none;align=left;verticalAlign=middle;spacingTop=-1;spacingLeft=3;spacingRight=3;rotatable=0;labelPosition=right;points=[];portConstraint=eastwest;strokeColor=inherit;" vertex="1" parent="lFWVvtdegQfaIloCyifd-49">
          <mxGeometry y="26" width="160" height="8" as="geometry" />
        </mxCell>
        <mxCell id="lFWVvtdegQfaIloCyifd-51" value="+ heal()" style="text;strokeColor=none;fillColor=none;align=left;verticalAlign=top;spacingLeft=4;spacingRight=4;overflow=hidden;rotatable=0;points=[[0,0.5],[1,0.5]];portConstraint=eastwest;whiteSpace=wrap;html=1;" vertex="1" parent="lFWVvtdegQfaIloCyifd-49">
          <mxGeometry y="34" width="160" height="26" as="geometry" />
        </mxCell>
        <mxCell id="lFWVvtdegQfaIloCyifd-52" value="MediumWindPet" style="swimlane;fontStyle=1;align=center;verticalAlign=top;childLayout=stackLayout;horizontal=1;startSize=26;horizontalStack=0;resizeParent=1;resizeParentMax=0;resizeLast=0;collapsible=1;marginBottom=0;whiteSpace=wrap;html=1;" vertex="1" parent="WIyWlLk6GJQsqaUBKTNV-1">
          <mxGeometry x="800" y="827" width="160" height="60" as="geometry" />
        </mxCell>
        <mxCell id="lFWVvtdegQfaIloCyifd-53" value="" style="line;strokeWidth=1;fillColor=none;align=left;verticalAlign=middle;spacingTop=-1;spacingLeft=3;spacingRight=3;rotatable=0;labelPosition=right;points=[];portConstraint=eastwest;strokeColor=inherit;" vertex="1" parent="lFWVvtdegQfaIloCyifd-52">
          <mxGeometry y="26" width="160" height="8" as="geometry" />
        </mxCell>
        <mxCell id="lFWVvtdegQfaIloCyifd-54" value="+ heal()" style="text;strokeColor=none;fillColor=none;align=left;verticalAlign=top;spacingLeft=4;spacingRight=4;overflow=hidden;rotatable=0;points=[[0,0.5],[1,0.5]];portConstraint=eastwest;whiteSpace=wrap;html=1;" vertex="1" parent="lFWVvtdegQfaIloCyifd-52">
          <mxGeometry y="34" width="160" height="26" as="geometry" />
        </mxCell>
        <mxCell id="lFWVvtdegQfaIloCyifd-55" value="BigWaterPet" style="swimlane;fontStyle=1;align=center;verticalAlign=top;childLayout=stackLayout;horizontal=1;startSize=26;horizontalStack=0;resizeParent=1;resizeParentMax=0;resizeLast=0;collapsible=1;marginBottom=0;whiteSpace=wrap;html=1;" vertex="1" parent="WIyWlLk6GJQsqaUBKTNV-1">
          <mxGeometry x="1160" y="828" width="160" height="60" as="geometry" />
        </mxCell>
        <mxCell id="lFWVvtdegQfaIloCyifd-56" value="" style="line;strokeWidth=1;fillColor=none;align=left;verticalAlign=middle;spacingTop=-1;spacingLeft=3;spacingRight=3;rotatable=0;labelPosition=right;points=[];portConstraint=eastwest;strokeColor=inherit;" vertex="1" parent="lFWVvtdegQfaIloCyifd-55">
          <mxGeometry y="26" width="160" height="8" as="geometry" />
        </mxCell>
        <mxCell id="lFWVvtdegQfaIloCyifd-57" value="+ attack()" style="text;strokeColor=none;fillColor=none;align=left;verticalAlign=top;spacingLeft=4;spacingRight=4;overflow=hidden;rotatable=0;points=[[0,0.5],[1,0.5]];portConstraint=eastwest;whiteSpace=wrap;html=1;" vertex="1" parent="lFWVvtdegQfaIloCyifd-55">
          <mxGeometry y="34" width="160" height="26" as="geometry" />
        </mxCell>
        <mxCell id="lFWVvtdegQfaIloCyifd-58" value="BigEarthPet" style="swimlane;fontStyle=1;align=center;verticalAlign=top;childLayout=stackLayout;horizontal=1;startSize=26;horizontalStack=0;resizeParent=1;resizeParentMax=0;resizeLast=0;collapsible=1;marginBottom=0;whiteSpace=wrap;html=1;" vertex="1" parent="WIyWlLk6GJQsqaUBKTNV-1">
          <mxGeometry x="1360" y="828" width="160" height="60" as="geometry" />
        </mxCell>
        <mxCell id="lFWVvtdegQfaIloCyifd-59" value="" style="line;strokeWidth=1;fillColor=none;align=left;verticalAlign=middle;spacingTop=-1;spacingLeft=3;spacingRight=3;rotatable=0;labelPosition=right;points=[];portConstraint=eastwest;strokeColor=inherit;" vertex="1" parent="lFWVvtdegQfaIloCyifd-58">
          <mxGeometry y="26" width="160" height="8" as="geometry" />
        </mxCell>
        <mxCell id="lFWVvtdegQfaIloCyifd-60" value="+attack()" style="text;strokeColor=none;fillColor=none;align=left;verticalAlign=top;spacingLeft=4;spacingRight=4;overflow=hidden;rotatable=0;points=[[0,0.5],[1,0.5]];portConstraint=eastwest;whiteSpace=wrap;html=1;" vertex="1" parent="lFWVvtdegQfaIloCyifd-58">
          <mxGeometry y="34" width="160" height="26" as="geometry" />
        </mxCell>
        <mxCell id="lFWVvtdegQfaIloCyifd-61" value="BigWindPet" style="swimlane;fontStyle=1;align=center;verticalAlign=top;childLayout=stackLayout;horizontal=1;startSize=26;horizontalStack=0;resizeParent=1;resizeParentMax=0;resizeLast=0;collapsible=1;marginBottom=0;whiteSpace=wrap;html=1;" vertex="1" parent="WIyWlLk6GJQsqaUBKTNV-1">
          <mxGeometry x="1560" y="828" width="160" height="60" as="geometry" />
        </mxCell>
        <mxCell id="lFWVvtdegQfaIloCyifd-62" value="" style="line;strokeWidth=1;fillColor=none;align=left;verticalAlign=middle;spacingTop=-1;spacingLeft=3;spacingRight=3;rotatable=0;labelPosition=right;points=[];portConstraint=eastwest;strokeColor=inherit;" vertex="1" parent="lFWVvtdegQfaIloCyifd-61">
          <mxGeometry y="26" width="160" height="8" as="geometry" />
        </mxCell>
        <mxCell id="lFWVvtdegQfaIloCyifd-63" value="+attack()" style="text;strokeColor=none;fillColor=none;align=left;verticalAlign=top;spacingLeft=4;spacingRight=4;overflow=hidden;rotatable=0;points=[[0,0.5],[1,0.5]];portConstraint=eastwest;whiteSpace=wrap;html=1;" vertex="1" parent="lFWVvtdegQfaIloCyifd-61">
          <mxGeometry y="34" width="160" height="26" as="geometry" />
        </mxCell>
        <mxCell id="lFWVvtdegQfaIloCyifd-64" value="" style="endArrow=classic;html=1;rounded=0;exitX=0.5;exitY=0;exitDx=0;exitDy=0;" edge="1" parent="WIyWlLk6GJQsqaUBKTNV-1" source="lFWVvtdegQfaIloCyifd-37" target="lFWVvtdegQfaIloCyifd-27">
          <mxGeometry width="50" height="50" relative="1" as="geometry">
            <mxPoint y="857" as="sourcePoint" />
            <mxPoint x="50" y="807" as="targetPoint" />
            <Array as="points">
              <mxPoint x="-40" y="797" />
            </Array>
          </mxGeometry>
        </mxCell>
        <mxCell id="lFWVvtdegQfaIloCyifd-65" value="" style="endArrow=classic;html=1;rounded=0;exitX=0.5;exitY=0;exitDx=0;exitDy=0;" edge="1" parent="WIyWlLk6GJQsqaUBKTNV-1" source="lFWVvtdegQfaIloCyifd-40" target="lFWVvtdegQfaIloCyifd-27">
          <mxGeometry width="50" height="50" relative="1" as="geometry">
            <mxPoint y="857" as="sourcePoint" />
            <mxPoint x="50" y="807" as="targetPoint" />
          </mxGeometry>
        </mxCell>
        <mxCell id="lFWVvtdegQfaIloCyifd-66" value="" style="endArrow=classic;html=1;rounded=0;exitX=0.5;exitY=0;exitDx=0;exitDy=0;" edge="1" parent="WIyWlLk6GJQsqaUBKTNV-1" source="lFWVvtdegQfaIloCyifd-43" target="lFWVvtdegQfaIloCyifd-27">
          <mxGeometry width="50" height="50" relative="1" as="geometry">
            <mxPoint y="857" as="sourcePoint" />
            <mxPoint x="50" y="807" as="targetPoint" />
            <Array as="points">
              <mxPoint x="-40" y="797" />
            </Array>
          </mxGeometry>
        </mxCell>
        <mxCell id="lFWVvtdegQfaIloCyifd-67" value="" style="endArrow=classic;html=1;rounded=0;exitX=0.5;exitY=0;exitDx=0;exitDy=0;" edge="1" parent="WIyWlLk6GJQsqaUBKTNV-1" source="lFWVvtdegQfaIloCyifd-46" target="lFWVvtdegQfaIloCyifd-31">
          <mxGeometry width="50" height="50" relative="1" as="geometry">
            <mxPoint x="710" y="787" as="sourcePoint" />
            <mxPoint x="760" y="737" as="targetPoint" />
            <Array as="points">
              <mxPoint x="680" y="797" />
            </Array>
          </mxGeometry>
        </mxCell>
        <mxCell id="lFWVvtdegQfaIloCyifd-68" value="" style="endArrow=classic;html=1;rounded=0;exitX=0.5;exitY=0;exitDx=0;exitDy=0;" edge="1" parent="WIyWlLk6GJQsqaUBKTNV-1" source="lFWVvtdegQfaIloCyifd-49" target="lFWVvtdegQfaIloCyifd-31">
          <mxGeometry width="50" height="50" relative="1" as="geometry">
            <mxPoint x="710" y="787" as="sourcePoint" />
            <mxPoint x="760" y="737" as="targetPoint" />
          </mxGeometry>
        </mxCell>
        <mxCell id="lFWVvtdegQfaIloCyifd-69" value="" style="endArrow=classic;html=1;rounded=0;exitX=0.5;exitY=0;exitDx=0;exitDy=0;" edge="1" parent="WIyWlLk6GJQsqaUBKTNV-1" source="lFWVvtdegQfaIloCyifd-52" target="lFWVvtdegQfaIloCyifd-31">
          <mxGeometry width="50" height="50" relative="1" as="geometry">
            <mxPoint x="710" y="787" as="sourcePoint" />
            <mxPoint x="760" y="737" as="targetPoint" />
            <Array as="points">
              <mxPoint x="680" y="797" />
            </Array>
          </mxGeometry>
        </mxCell>
        <mxCell id="lFWVvtdegQfaIloCyifd-70" value="" style="endArrow=classic;html=1;rounded=0;exitX=0.5;exitY=0;exitDx=0;exitDy=0;" edge="1" parent="WIyWlLk6GJQsqaUBKTNV-1" source="lFWVvtdegQfaIloCyifd-55" target="lFWVvtdegQfaIloCyifd-34">
          <mxGeometry width="50" height="50" relative="1" as="geometry">
            <mxPoint x="1420" y="797" as="sourcePoint" />
            <mxPoint x="1470" y="747" as="targetPoint" />
            <Array as="points">
              <mxPoint x="1440" y="797" />
            </Array>
          </mxGeometry>
        </mxCell>
        <mxCell id="lFWVvtdegQfaIloCyifd-71" value="" style="endArrow=classic;html=1;rounded=0;exitX=0.5;exitY=0;exitDx=0;exitDy=0;" edge="1" parent="WIyWlLk6GJQsqaUBKTNV-1" source="lFWVvtdegQfaIloCyifd-58" target="lFWVvtdegQfaIloCyifd-34">
          <mxGeometry width="50" height="50" relative="1" as="geometry">
            <mxPoint x="1420" y="797" as="sourcePoint" />
            <mxPoint x="1470" y="747" as="targetPoint" />
          </mxGeometry>
        </mxCell>
        <mxCell id="lFWVvtdegQfaIloCyifd-72" value="" style="endArrow=classic;html=1;rounded=0;exitX=0.5;exitY=0;exitDx=0;exitDy=0;" edge="1" parent="WIyWlLk6GJQsqaUBKTNV-1" source="lFWVvtdegQfaIloCyifd-61" target="lFWVvtdegQfaIloCyifd-34">
          <mxGeometry width="50" height="50" relative="1" as="geometry">
            <mxPoint x="1420" y="797" as="sourcePoint" />
            <mxPoint x="1470" y="747" as="targetPoint" />
            <Array as="points">
              <mxPoint x="1440" y="797" />
            </Array>
          </mxGeometry>
        </mxCell>
        <mxCell id="lFWVvtdegQfaIloCyifd-73" value="" style="endArrow=block;html=1;rounded=0;entryX=0.5;entryY=0;entryDx=0;entryDy=0;exitX=0;exitY=0.5;exitDx=0;exitDy=0;endFill=0;dashed=1;" edge="1" parent="WIyWlLk6GJQsqaUBKTNV-1" source="lFWVvtdegQfaIloCyifd-11" target="lFWVvtdegQfaIloCyifd-37">
          <mxGeometry width="50" height="50" relative="1" as="geometry">
            <mxPoint x="510" y="607" as="sourcePoint" />
            <mxPoint x="560" y="557" as="targetPoint" />
            <Array as="points">
              <mxPoint x="-240" y="467" />
            </Array>
          </mxGeometry>
        </mxCell>
        <mxCell id="lFWVvtdegQfaIloCyifd-74" value="" style="endArrow=block;html=1;rounded=0;exitX=0;exitY=0.5;exitDx=0;exitDy=0;entryX=1;entryY=0.25;entryDx=0;entryDy=0;dashed=1;endFill=0;" edge="1" parent="WIyWlLk6GJQsqaUBKTNV-1" source="lFWVvtdegQfaIloCyifd-16" target="lFWVvtdegQfaIloCyifd-40">
          <mxGeometry width="50" height="50" relative="1" as="geometry">
            <mxPoint x="490" y="667" as="sourcePoint" />
            <mxPoint x="280" y="987" as="targetPoint" />
            <Array as="points">
              <mxPoint x="560" y="472" />
              <mxPoint x="560" y="607" />
              <mxPoint x="280" y="607" />
              <mxPoint x="280" y="987" />
              <mxPoint x="60" y="987" />
              <mxPoint x="60" y="842" />
            </Array>
          </mxGeometry>
        </mxCell>
        <mxCell id="lFWVvtdegQfaIloCyifd-75" value="" style="endArrow=block;html=1;rounded=0;exitX=0;exitY=0.5;exitDx=0;exitDy=0;entryX=1.007;entryY=0.28;entryDx=0;entryDy=0;dashed=1;endFill=0;entryPerimeter=0;" edge="1" parent="WIyWlLk6GJQsqaUBKTNV-1" source="lFWVvtdegQfaIloCyifd-21" target="lFWVvtdegQfaIloCyifd-45">
          <mxGeometry width="50" height="50" relative="1" as="geometry">
            <mxPoint x="610" y="482" as="sourcePoint" />
            <mxPoint x="50" y="852" as="targetPoint" />
            <Array as="points">
              <mxPoint x="790" y="472" />
              <mxPoint x="790" y="627" />
              <mxPoint x="360" y="627" />
              <mxPoint x="360" y="867" />
              <mxPoint x="290" y="867" />
            </Array>
          </mxGeometry>
        </mxCell>
        <mxCell id="lFWVvtdegQfaIloCyifd-76" value="" style="endArrow=block;html=1;rounded=0;entryX=0.25;entryY=0;entryDx=0;entryDy=0;exitX=0;exitY=0.5;exitDx=0;exitDy=0;dashed=1;endFill=0;" edge="1" parent="WIyWlLk6GJQsqaUBKTNV-1" source="lFWVvtdegQfaIloCyifd-12" target="lFWVvtdegQfaIloCyifd-46">
          <mxGeometry width="50" height="50" relative="1" as="geometry">
            <mxPoint x="580" y="717" as="sourcePoint" />
            <mxPoint x="630" y="667" as="targetPoint" />
            <Array as="points">
              <mxPoint x="320" y="502" />
              <mxPoint x="320" y="787" />
              <mxPoint x="440" y="787" />
            </Array>
          </mxGeometry>
        </mxCell>
        <mxCell id="lFWVvtdegQfaIloCyifd-77" value="" style="endArrow=block;html=1;rounded=0;exitX=0;exitY=0.5;exitDx=0;exitDy=0;dashed=1;endFill=0;" edge="1" parent="WIyWlLk6GJQsqaUBKTNV-1" source="lFWVvtdegQfaIloCyifd-17" target="lFWVvtdegQfaIloCyifd-49">
          <mxGeometry width="50" height="50" relative="1" as="geometry">
            <mxPoint x="680" y="747" as="sourcePoint" />
            <mxPoint x="730" y="697" as="targetPoint" />
            <Array as="points">
              <mxPoint x="570" y="502" />
              <mxPoint x="570" y="757" />
              <mxPoint x="380" y="757" />
              <mxPoint x="380" y="927" />
              <mxPoint x="680" y="927" />
            </Array>
          </mxGeometry>
        </mxCell>
        <mxCell id="lFWVvtdegQfaIloCyifd-78" value="" style="endArrow=block;html=1;rounded=0;exitX=0;exitY=0.5;exitDx=0;exitDy=0;entryX=0.75;entryY=0;entryDx=0;entryDy=0;dashed=1;endFill=0;" edge="1" parent="WIyWlLk6GJQsqaUBKTNV-1" source="lFWVvtdegQfaIloCyifd-22" target="lFWVvtdegQfaIloCyifd-52">
          <mxGeometry width="50" height="50" relative="1" as="geometry">
            <mxPoint x="900" y="757" as="sourcePoint" />
            <mxPoint x="950" y="707" as="targetPoint" />
            <Array as="points">
              <mxPoint x="810" y="502" />
              <mxPoint x="810" y="707" />
              <mxPoint x="920" y="707" />
            </Array>
          </mxGeometry>
        </mxCell>
        <mxCell id="lFWVvtdegQfaIloCyifd-79" value="" style="endArrow=block;html=1;rounded=0;entryX=0.25;entryY=0;entryDx=0;entryDy=0;exitX=1;exitY=0.5;exitDx=0;exitDy=0;dashed=1;endFill=0;" edge="1" parent="WIyWlLk6GJQsqaUBKTNV-1" source="lFWVvtdegQfaIloCyifd-13" target="lFWVvtdegQfaIloCyifd-55">
          <mxGeometry width="50" height="50" relative="1" as="geometry">
            <mxPoint x="920" y="827" as="sourcePoint" />
            <mxPoint x="970" y="777" as="targetPoint" />
            <Array as="points">
              <mxPoint x="550" y="532" />
              <mxPoint x="550" y="657" />
              <mxPoint x="1200" y="657" />
            </Array>
          </mxGeometry>
        </mxCell>
        <mxCell id="lFWVvtdegQfaIloCyifd-80" value="" style="endArrow=block;html=1;rounded=0;exitX=1;exitY=0.5;exitDx=0;exitDy=0;dashed=1;endFill=0;" edge="1" parent="WIyWlLk6GJQsqaUBKTNV-1" source="lFWVvtdegQfaIloCyifd-18" target="lFWVvtdegQfaIloCyifd-58">
          <mxGeometry width="50" height="50" relative="1" as="geometry">
            <mxPoint x="990" y="717" as="sourcePoint" />
            <mxPoint x="1040" y="667" as="targetPoint" />
            <Array as="points">
              <mxPoint x="780" y="532" />
              <mxPoint x="780" y="947" />
              <mxPoint x="1440" y="947" />
            </Array>
          </mxGeometry>
        </mxCell>
        <mxCell id="lFWVvtdegQfaIloCyifd-81" value="" style="endArrow=block;html=1;rounded=0;exitX=1;exitY=0.5;exitDx=0;exitDy=0;entryX=0.75;entryY=0;entryDx=0;entryDy=0;dashed=1;endFill=0;" edge="1" parent="WIyWlLk6GJQsqaUBKTNV-1" source="lFWVvtdegQfaIloCyifd-23" target="lFWVvtdegQfaIloCyifd-61">
          <mxGeometry width="50" height="50" relative="1" as="geometry">
            <mxPoint x="1260" y="717" as="sourcePoint" />
            <mxPoint x="1310" y="667" as="targetPoint" />
            <Array as="points">
              <mxPoint x="1680" y="532" />
            </Array>
          </mxGeometry>
        </mxCell>
        <mxCell id="lFWVvtdegQfaIloCyifd-82" value="Client" style="swimlane;fontStyle=1;align=center;verticalAlign=top;childLayout=stackLayout;horizontal=1;startSize=26;horizontalStack=0;resizeParent=1;resizeParentMax=0;resizeLast=0;collapsible=1;marginBottom=0;whiteSpace=wrap;html=1;" vertex="1" parent="WIyWlLk6GJQsqaUBKTNV-1">
          <mxGeometry x="600" y="16" width="160" height="60" as="geometry" />
        </mxCell>
        <mxCell id="lFWVvtdegQfaIloCyifd-84" value="" style="line;strokeWidth=1;fillColor=none;align=left;verticalAlign=middle;spacingTop=-1;spacingLeft=3;spacingRight=3;rotatable=0;labelPosition=right;points=[];portConstraint=eastwest;strokeColor=inherit;" vertex="1" parent="lFWVvtdegQfaIloCyifd-82">
          <mxGeometry y="26" width="160" height="8" as="geometry" />
        </mxCell>
        <mxCell id="lFWVvtdegQfaIloCyifd-85" value="+&amp;nbsp;create_pets()" style="text;strokeColor=none;fillColor=none;align=left;verticalAlign=top;spacingLeft=4;spacingRight=4;overflow=hidden;rotatable=0;points=[[0,0.5],[1,0.5]];portConstraint=eastwest;whiteSpace=wrap;html=1;" vertex="1" parent="lFWVvtdegQfaIloCyifd-82">
          <mxGeometry y="34" width="160" height="26" as="geometry" />
        </mxCell>
        <mxCell id="lFWVvtdegQfaIloCyifd-86" value="" style="endArrow=open;html=1;rounded=0;endFill=0;" edge="1" parent="WIyWlLk6GJQsqaUBKTNV-1" source="lFWVvtdegQfaIloCyifd-82" target="zkfFHV4jXpPFQw0GAbJ--0">
          <mxGeometry width="50" height="50" relative="1" as="geometry">
            <mxPoint x="670" y="350" as="sourcePoint" />
            <mxPoint x="720" y="300" as="targetPoint" />
          </mxGeometry>
        </mxCell>
        <mxCell id="lFWVvtdegQfaIloCyifd-87" value="" style="endArrow=open;html=1;rounded=0;endFill=0;" edge="1" parent="WIyWlLk6GJQsqaUBKTNV-1" source="lFWVvtdegQfaIloCyifd-82" target="lFWVvtdegQfaIloCyifd-27">
          <mxGeometry width="50" height="50" relative="1" as="geometry">
            <mxPoint x="690" y="86" as="sourcePoint" />
            <mxPoint x="690" y="157" as="targetPoint" />
            <Array as="points">
              <mxPoint x="-40" y="46" />
            </Array>
          </mxGeometry>
        </mxCell>
        <mxCell id="lFWVvtdegQfaIloCyifd-88" value="" style="endArrow=open;html=1;rounded=0;endFill=0;" edge="1" parent="WIyWlLk6GJQsqaUBKTNV-1" source="lFWVvtdegQfaIloCyifd-82" target="lFWVvtdegQfaIloCyifd-34">
          <mxGeometry width="50" height="50" relative="1" as="geometry">
            <mxPoint x="700" y="96" as="sourcePoint" />
            <mxPoint x="700" y="167" as="targetPoint" />
            <Array as="points">
              <mxPoint x="1440" y="40" />
            </Array>
          </mxGeometry>
        </mxCell>
        <mxCell id="lFWVvtdegQfaIloCyifd-89" value="" style="endArrow=open;html=1;rounded=0;endFill=0;" edge="1" parent="WIyWlLk6GJQsqaUBKTNV-1" source="lFWVvtdegQfaIloCyifd-82" target="lFWVvtdegQfaIloCyifd-31">
          <mxGeometry width="50" height="50" relative="1" as="geometry">
            <mxPoint x="710" y="106" as="sourcePoint" />
            <mxPoint x="710" y="177" as="targetPoint" />
            <Array as="points">
              <mxPoint x="720" y="120" />
              <mxPoint x="1160" y="120" />
              <mxPoint x="1150" y="730" />
            </Array>
          </mxGeometry>
        </mxCell>
      </root>
    </mxGraphModel>
  </diagram>
</mxfile>
